<svg xmlns="http://www.w3.org/2000/svg" version="1.1" xmlns:xlink="http://www.w3.org/1999/xlink" xmlns:svgjs="http://svgjs.com/svgjs" width="1440" height="580" preserveAspectRatio="none" viewBox="0 0 1440 580"><g mask="url(&quot;#SvgjsMask1026&quot;)" fill="none"><rect width="1440" height="580" x="0" y="0" fill="url(#SvgjsLinearGradient1027)"></rect><path d="M 0,56 C 96,100.4 288,275.4 480,278 C 672,280.6 768,92.4 960,69 C 1152,45.6 1344,142.6 1440,161L1440 580L0 580z" fill="#184a7e"></path><path d="M 0,324 C 72,353 216,470.2 360,469 C 504,467.8 576,324 720,318 C 864,312 936,434.4 1080,439 C 1224,443.6 1368,360.6 1440,341L1440 580L0 580z" fill="rgba(40, 113, 192, 1)"></path></g><defs><mask id="SvgjsMask1026"><rect width="1440" height="580" fill="#ffffff"></rect></mask><linearGradient x1="85.07%" y1="-37.07%" x2="14.93%" y2="137.07%" gradientUnits="userSpaceOnUse" id="SvgjsLinearGradient1027"><stop stop-color="#0e2a47" offset="0"></stop><stop stop-color="rgba(1, 48, 110, 1)" offset="1"></stop></linearGradient></defs></svg>